<mxfile host="Electron" agent="Mozilla/5.0 (Macintosh; Intel Mac OS X 10_15_7) AppleWebKit/537.36 (KHTML, like Gecko) draw.io/26.0.16 Chrome/132.0.6834.196 Electron/34.2.0 Safari/537.36" version="26.0.16">
  <diagram name="Page-1" id="dD0NXqtEgDIGh2C7W_OH">
    <mxGraphModel dx="2230" dy="949" grid="1" gridSize="10" guides="1" tooltips="1" connect="1" arrows="1" fold="1" page="1" pageScale="1" pageWidth="850" pageHeight="1100" math="0" shadow="0">
      <root>
        <mxCell id="0" />
        <mxCell id="1" parent="0" />
        <mxCell id="-h2qMQYOc3EUqe3AqsbQ-2" value="Amazon Bedrock&lt;div&gt;Claude&lt;/div&gt;" style="sketch=0;points=[[0,0,0],[0.25,0,0],[0.5,0,0],[0.75,0,0],[1,0,0],[0,1,0],[0.25,1,0],[0.5,1,0],[0.75,1,0],[1,1,0],[0,0.25,0],[0,0.5,0],[0,0.75,0],[1,0.25,0],[1,0.5,0],[1,0.75,0]];outlineConnect=0;fontColor=#232F3E;fillColor=#01A88D;strokeColor=#ffffff;dashed=0;verticalLabelPosition=bottom;verticalAlign=top;align=center;html=1;fontSize=12;fontStyle=0;aspect=fixed;shape=mxgraph.aws4.resourceIcon;resIcon=mxgraph.aws4.bedrock;labelBackgroundColor=default;" vertex="1" parent="1">
          <mxGeometry x="640" y="361" width="78" height="78" as="geometry" />
        </mxCell>
        <mxCell id="-h2qMQYOc3EUqe3AqsbQ-3" value="" style="edgeStyle=orthogonalEdgeStyle;rounded=0;orthogonalLoop=1;jettySize=auto;html=1;" edge="1" parent="1" source="-h2qMQYOc3EUqe3AqsbQ-41" target="-h2qMQYOc3EUqe3AqsbQ-33">
          <mxGeometry relative="1" as="geometry">
            <mxPoint x="278" y="400" as="sourcePoint" />
            <mxPoint x="360.0009098974092" y="400" as="targetPoint" />
          </mxGeometry>
        </mxCell>
        <mxCell id="-h2qMQYOc3EUqe3AqsbQ-4" value="" style="edgeStyle=orthogonalEdgeStyle;rounded=0;orthogonalLoop=1;jettySize=auto;html=1;" edge="1" parent="1" source="-h2qMQYOc3EUqe3AqsbQ-33" target="-h2qMQYOc3EUqe3AqsbQ-2">
          <mxGeometry relative="1" as="geometry">
            <mxPoint x="439.99909010259125" y="400" as="sourcePoint" />
          </mxGeometry>
        </mxCell>
        <mxCell id="-h2qMQYOc3EUqe3AqsbQ-17" value="Amazon DynamoDB Table&lt;div&gt;ChatHistory&lt;/div&gt;" style="sketch=0;points=[[0,0,0],[0.25,0,0],[0.5,0,0],[0.75,0,0],[1,0,0],[0,1,0],[0.25,1,0],[0.5,1,0],[0.75,1,0],[1,1,0],[0,0.25,0],[0,0.5,0],[0,0.75,0],[1,0.25,0],[1,0.5,0],[1,0.75,0]];outlineConnect=0;fontColor=#232F3E;fillColor=#C925D1;strokeColor=#ffffff;dashed=0;verticalLabelPosition=bottom;verticalAlign=top;align=center;html=1;fontSize=12;fontStyle=0;aspect=fixed;shape=mxgraph.aws4.resourceIcon;resIcon=mxgraph.aws4.dynamodb;labelBackgroundColor=default;" vertex="1" parent="1">
          <mxGeometry x="640" y="200" width="78" height="78" as="geometry" />
        </mxCell>
        <mxCell id="-h2qMQYOc3EUqe3AqsbQ-18" value="Tavily&lt;div&gt;Search API&lt;/div&gt;" style="sketch=0;html=1;aspect=fixed;strokeColor=none;shadow=0;fillColor=#3B8DF1;verticalAlign=top;labelPosition=center;verticalLabelPosition=bottom;shape=mxgraph.gcp2.search_api" vertex="1" parent="1">
          <mxGeometry x="359" y="560" width="80" height="80" as="geometry" />
        </mxCell>
        <mxCell id="-h2qMQYOc3EUqe3AqsbQ-34" style="edgeStyle=orthogonalEdgeStyle;rounded=0;orthogonalLoop=1;jettySize=auto;html=1;entryX=0;entryY=0.5;entryDx=0;entryDy=0;entryPerimeter=0;" edge="1" parent="1" source="-h2qMQYOc3EUqe3AqsbQ-33" target="-h2qMQYOc3EUqe3AqsbQ-17">
          <mxGeometry relative="1" as="geometry">
            <Array as="points">
              <mxPoint x="540" y="390" />
              <mxPoint x="540" y="239" />
            </Array>
          </mxGeometry>
        </mxCell>
        <mxCell id="-h2qMQYOc3EUqe3AqsbQ-35" value="" style="edgeStyle=orthogonalEdgeStyle;rounded=0;orthogonalLoop=1;jettySize=auto;html=1;" edge="1" parent="1" source="-h2qMQYOc3EUqe3AqsbQ-36" target="-h2qMQYOc3EUqe3AqsbQ-39">
          <mxGeometry relative="1" as="geometry" />
        </mxCell>
        <mxCell id="-h2qMQYOc3EUqe3AqsbQ-36" value="&lt;div&gt;User&lt;/div&gt;" style="sketch=0;outlineConnect=0;fontColor=#232F3E;gradientColor=none;fillColor=#232F3D;strokeColor=none;dashed=0;verticalLabelPosition=bottom;verticalAlign=top;align=center;html=1;fontSize=12;fontStyle=0;aspect=fixed;pointerEvents=1;shape=mxgraph.aws4.user;" vertex="1" parent="1">
          <mxGeometry x="-119" y="361" width="78" height="78" as="geometry" />
        </mxCell>
        <mxCell id="-h2qMQYOc3EUqe3AqsbQ-37" value="" style="edgeStyle=orthogonalEdgeStyle;rounded=0;orthogonalLoop=1;jettySize=auto;html=1;" edge="1" parent="1" source="-h2qMQYOc3EUqe3AqsbQ-39" target="-h2qMQYOc3EUqe3AqsbQ-40">
          <mxGeometry relative="1" as="geometry" />
        </mxCell>
        <mxCell id="-h2qMQYOc3EUqe3AqsbQ-38" value="" style="edgeStyle=orthogonalEdgeStyle;rounded=0;orthogonalLoop=1;jettySize=auto;html=1;" edge="1" parent="1" source="-h2qMQYOc3EUqe3AqsbQ-39" target="-h2qMQYOc3EUqe3AqsbQ-41">
          <mxGeometry relative="1" as="geometry" />
        </mxCell>
        <mxCell id="-h2qMQYOc3EUqe3AqsbQ-39" value="Amazon API Gateway&lt;div&gt;HTTP API&lt;/div&gt;" style="sketch=0;points=[[0,0,0],[0.25,0,0],[0.5,0,0],[0.75,0,0],[1,0,0],[0,1,0],[0.25,1,0],[0.5,1,0],[0.75,1,0],[1,1,0],[0,0.25,0],[0,0.5,0],[0,0.75,0],[1,0.25,0],[1,0.5,0],[1,0.75,0]];outlineConnect=0;fontColor=#232F3E;fillColor=#E7157B;strokeColor=#ffffff;dashed=0;verticalLabelPosition=bottom;verticalAlign=top;align=center;html=1;fontSize=12;fontStyle=0;aspect=fixed;shape=mxgraph.aws4.resourceIcon;resIcon=mxgraph.aws4.api_gateway;labelBackgroundColor=default;" vertex="1" parent="1">
          <mxGeometry x="41" y="361" width="78" height="78" as="geometry" />
        </mxCell>
        <mxCell id="-h2qMQYOc3EUqe3AqsbQ-40" value="Amazon Cognito&lt;div&gt;UserPool&lt;/div&gt;" style="sketch=0;points=[[0,0,0],[0.25,0,0],[0.5,0,0],[0.75,0,0],[1,0,0],[0,1,0],[0.25,1,0],[0.5,1,0],[0.75,1,0],[1,1,0],[0,0.25,0],[0,0.5,0],[0,0.75,0],[1,0.25,0],[1,0.5,0],[1,0.75,0]];outlineConnect=0;fontColor=#232F3E;fillColor=#DD344C;strokeColor=#ffffff;dashed=0;verticalLabelPosition=bottom;verticalAlign=top;align=center;html=1;fontSize=12;fontStyle=0;aspect=fixed;shape=mxgraph.aws4.resourceIcon;resIcon=mxgraph.aws4.cognito;labelBackgroundColor=default;" vertex="1" parent="1">
          <mxGeometry x="41" y="200" width="78" height="78" as="geometry" />
        </mxCell>
        <mxCell id="-h2qMQYOc3EUqe3AqsbQ-41" value="Amazon ALB" style="sketch=0;outlineConnect=0;fontColor=#232F3E;gradientColor=none;fillColor=#8C4FFF;strokeColor=none;dashed=0;verticalLabelPosition=bottom;verticalAlign=top;align=center;html=1;fontSize=12;fontStyle=0;aspect=fixed;pointerEvents=1;shape=mxgraph.aws4.application_load_balancer;" vertex="1" parent="1">
          <mxGeometry x="201" y="361" width="78" height="78" as="geometry" />
        </mxCell>
        <mxCell id="-h2qMQYOc3EUqe3AqsbQ-42" value="VPC" style="points=[[0,0],[0.25,0],[0.5,0],[0.75,0],[1,0],[1,0.25],[1,0.5],[1,0.75],[1,1],[0.75,1],[0.5,1],[0.25,1],[0,1],[0,0.75],[0,0.5],[0,0.25]];outlineConnect=0;gradientColor=none;html=1;whiteSpace=wrap;fontSize=12;fontStyle=0;container=1;pointerEvents=0;collapsible=0;recursiveResize=0;shape=mxgraph.aws4.group;grIcon=mxgraph.aws4.group_vpc2;strokeColor=#8C4FFF;fillColor=none;verticalAlign=top;align=left;spacingLeft=30;fontColor=#AAB7B8;dashed=0;" vertex="1" parent="1">
          <mxGeometry x="160" y="320" width="320" height="160" as="geometry" />
        </mxCell>
        <mxCell id="-h2qMQYOc3EUqe3AqsbQ-48" style="edgeStyle=orthogonalEdgeStyle;rounded=0;orthogonalLoop=1;jettySize=auto;html=1;entryX=0.506;entryY=0.033;entryDx=0;entryDy=0;entryPerimeter=0;" edge="1" parent="1" source="-h2qMQYOc3EUqe3AqsbQ-33" target="-h2qMQYOc3EUqe3AqsbQ-18">
          <mxGeometry relative="1" as="geometry" />
        </mxCell>
        <mxCell id="-h2qMQYOc3EUqe3AqsbQ-33" value="&lt;span style=&quot;&quot;&gt;Amazon ECS&amp;nbsp;&lt;/span&gt;Fargate&lt;div&gt;Chainlit UI&lt;/div&gt;" style="sketch=0;points=[[0,0,0],[0.25,0,0],[0.5,0,0],[0.75,0,0],[1,0,0],[0,1,0],[0.25,1,0],[0.5,1,0],[0.75,1,0],[1,1,0],[0,0.25,0],[0,0.5,0],[0,0.75,0],[1,0.25,0],[1,0.5,0],[1,0.75,0]];outlineConnect=0;fontColor=#232F3E;fillColor=#ED7100;strokeColor=#ffffff;dashed=0;verticalLabelPosition=bottom;verticalAlign=top;align=center;html=1;fontSize=12;fontStyle=0;aspect=fixed;shape=mxgraph.aws4.resourceIcon;resIcon=mxgraph.aws4.fargate;labelBackgroundColor=default;" vertex="1" parent="1">
          <mxGeometry x="361" y="361" width="78" height="78" as="geometry" />
        </mxCell>
      </root>
    </mxGraphModel>
  </diagram>
</mxfile>
